<?xml version="1.0" encoding="UTF-8" standalone="no"?>
<!DOCTYPE svg PUBLIC "-//W3C//DTD SVG 1.1//EN"
 "http://www.w3.org/Graphics/SVG/1.1/DTD/svg11.dtd">
<!-- Generated by graphviz version 2.43.0 (0)
 -->
<!-- Title: host Pages: 1 -->
<svg width="2210pt" height="237pt"
 viewBox="0.00 0.00 2210.33 237.00" xmlns="http://www.w3.org/2000/svg" xmlns:xlink="http://www.w3.org/1999/xlink">
<g id="graph0" class="graph" transform="scale(1 1) rotate(0) translate(4 233)">
<title>host</title>
<polygon fill="white" stroke="transparent" points="-4,4 -4,-233 2206.33,-233 2206.33,4 -4,4"/>
<!-- 16 -->
<g id="node1" class="node">
<title>16</title>
<ellipse fill="chartreuse" stroke="chartreuse" cx="77.34" cy="-153" rx="77.19" ry="18"/>
<text text-anchor="middle" x="77.34" y="-149.3" font-family="Times,serif" font-size="14.00">AffineApplyOp</text>
</g>
<!-- 17 -->
<g id="node2" class="node">
<title>17</title>
<ellipse fill="chartreuse" stroke="chartreuse" cx="303.78" cy="-153" rx="113.18" ry="18"/>
<text text-anchor="middle" x="303.78" y="-149.3" font-family="Times,serif" font-size="14.00">ExecuteTerminatorOp</text>
</g>
<!-- 16&#45;&gt;17 -->
<g id="edge1" class="edge">
<title>16&#45;&gt;17</title>
<path fill="none" stroke="black" d="M154.95,-153C163.17,-153 171.67,-153 180.24,-153"/>
<polygon fill="black" stroke="black" points="180.34,-156.5 190.34,-153 180.34,-149.5 180.34,-156.5"/>
</g>
<!-- 20 -->
<g id="node5" class="node">
<title>20</title>
<polygon fill="crimson" stroke="crimson" points="543.01,-144 455.01,-144 455.01,-108 543.01,-108 543.01,-144"/>
<text text-anchor="middle" x="499.01" y="-122.3" font-family="Times,serif" font-size="14.00">WaitAllOp</text>
</g>
<!-- 17&#45;&gt;20 -->
<g id="edge2" class="edge">
<title>17&#45;&gt;20</title>
<path fill="none" stroke="black" d="M389.25,-141.2C408.01,-138.58 427.38,-135.87 444.49,-133.48"/>
<polygon fill="black" stroke="black" points="445.4,-136.89 454.82,-132.03 444.43,-129.95 445.4,-136.89"/>
</g>
<!-- 18 -->
<g id="node3" class="node">
<title>18</title>
<ellipse fill="chartreuse" stroke="chartreuse" cx="77.34" cy="-99" rx="77.19" ry="18"/>
<text text-anchor="middle" x="77.34" y="-95.3" font-family="Times,serif" font-size="14.00">AffineApplyOp</text>
</g>
<!-- 19 -->
<g id="node4" class="node">
<title>19</title>
<ellipse fill="chartreuse" stroke="chartreuse" cx="303.78" cy="-99" rx="113.18" ry="18"/>
<text text-anchor="middle" x="303.78" y="-95.3" font-family="Times,serif" font-size="14.00">ExecuteTerminatorOp</text>
</g>
<!-- 18&#45;&gt;19 -->
<g id="edge3" class="edge">
<title>18&#45;&gt;19</title>
<path fill="none" stroke="black" d="M154.95,-99C163.17,-99 171.67,-99 180.24,-99"/>
<polygon fill="black" stroke="black" points="180.34,-102.5 190.34,-99 180.34,-95.5 180.34,-102.5"/>
</g>
<!-- 19&#45;&gt;20 -->
<g id="edge4" class="edge">
<title>19&#45;&gt;20</title>
<path fill="none" stroke="black" d="M389.25,-110.8C408.01,-113.42 427.38,-116.13 444.49,-118.52"/>
<polygon fill="black" stroke="black" points="444.43,-122.05 454.82,-119.97 445.4,-115.11 444.43,-122.05"/>
</g>
<!-- 41 -->
<g id="node26" class="node">
<title>41</title>
<polygon fill="crimson" stroke="crimson" points="735.75,-144 652.75,-144 652.75,-108 735.75,-108 735.75,-144"/>
<text text-anchor="middle" x="694.25" y="-122.3" font-family="Times,serif" font-size="14.00">ScfForOp</text>
</g>
<!-- 20&#45;&gt;41 -->
<g id="edge5" class="edge">
<title>20&#45;&gt;41</title>
<path fill="none" stroke="black" d="M543.38,-126C572.77,-126 611.72,-126 642.55,-126"/>
<polygon fill="black" stroke="black" points="642.67,-129.5 652.67,-126 642.67,-122.5 642.67,-129.5"/>
</g>
<!-- 21 -->
<g id="node6" class="node">
<title>21</title>
<ellipse fill="chartreuse" stroke="chartreuse" cx="499.01" cy="-180" rx="46.29" ry="18"/>
<text text-anchor="middle" x="499.01" y="-176.3" font-family="Times,serif" font-size="14.00">AllocOp</text>
</g>
<!-- 22 -->
<g id="node7" class="node">
<title>22</title>
<ellipse fill="chartreuse" stroke="chartreuse" cx="694.25" cy="-180" rx="113.18" ry="18"/>
<text text-anchor="middle" x="694.25" y="-176.3" font-family="Times,serif" font-size="14.00">ExecuteTerminatorOp</text>
</g>
<!-- 21&#45;&gt;22 -->
<g id="edge6" class="edge">
<title>21&#45;&gt;22</title>
<path fill="none" stroke="black" d="M545.32,-180C553.26,-180 561.85,-180 570.77,-180"/>
<polygon fill="black" stroke="black" points="570.94,-183.5 580.94,-180 570.94,-176.5 570.94,-183.5"/>
</g>
<!-- 27 -->
<g id="node12" class="node">
<title>27</title>
<ellipse fill="cyan" stroke="cyan" cx="942.13" cy="-172" rx="98.58" ry="18"/>
<text text-anchor="middle" x="942.13" y="-168.3" font-family="Times,serif" font-size="14.00">DmaMemcpyNdOp</text>
</g>
<!-- 22&#45;&gt;27 -->
<g id="edge7" class="edge">
<title>22&#45;&gt;27</title>
<path fill="none" stroke="black" d="M805.24,-176.42C815.02,-176.1 824.9,-175.78 834.65,-175.46"/>
<polygon fill="black" stroke="black" points="834.86,-178.96 844.74,-175.14 834.63,-171.96 834.86,-178.96"/>
</g>
<!-- 23 -->
<g id="node8" class="node">
<title>23</title>
<ellipse fill="chartreuse" stroke="chartreuse" cx="499.01" cy="-72" rx="46.29" ry="18"/>
<text text-anchor="middle" x="499.01" y="-68.3" font-family="Times,serif" font-size="14.00">AllocOp</text>
</g>
<!-- 24 -->
<g id="node9" class="node">
<title>24</title>
<ellipse fill="chartreuse" stroke="chartreuse" cx="694.25" cy="-72" rx="113.18" ry="18"/>
<text text-anchor="middle" x="694.25" y="-68.3" font-family="Times,serif" font-size="14.00">ExecuteTerminatorOp</text>
</g>
<!-- 23&#45;&gt;24 -->
<g id="edge8" class="edge">
<title>23&#45;&gt;24</title>
<path fill="none" stroke="black" d="M545.32,-72C553.26,-72 561.85,-72 570.77,-72"/>
<polygon fill="black" stroke="black" points="570.94,-75.5 580.94,-72 570.94,-68.5 570.94,-75.5"/>
</g>
<!-- 28 -->
<g id="node13" class="node">
<title>28</title>
<ellipse fill="cyan" stroke="cyan" cx="942.13" cy="-80" rx="98.58" ry="18"/>
<text text-anchor="middle" x="942.13" y="-76.3" font-family="Times,serif" font-size="14.00">DmaMemcpyNdOp</text>
</g>
<!-- 24&#45;&gt;28 -->
<g id="edge9" class="edge">
<title>24&#45;&gt;28</title>
<path fill="none" stroke="black" d="M805.24,-75.58C815.02,-75.9 824.9,-76.22 834.65,-76.54"/>
<polygon fill="black" stroke="black" points="834.63,-80.04 844.74,-76.86 834.86,-73.04 834.63,-80.04"/>
</g>
<!-- 25 -->
<g id="node10" class="node">
<title>25</title>
<ellipse fill="chartreuse" stroke="chartreuse" cx="499.01" cy="-18" rx="46.29" ry="18"/>
<text text-anchor="middle" x="499.01" y="-14.3" font-family="Times,serif" font-size="14.00">AllocOp</text>
</g>
<!-- 26 -->
<g id="node11" class="node">
<title>26</title>
<ellipse fill="chartreuse" stroke="chartreuse" cx="694.25" cy="-18" rx="113.18" ry="18"/>
<text text-anchor="middle" x="694.25" y="-14.3" font-family="Times,serif" font-size="14.00">ExecuteTerminatorOp</text>
</g>
<!-- 25&#45;&gt;26 -->
<g id="edge10" class="edge">
<title>25&#45;&gt;26</title>
<path fill="none" stroke="black" d="M545.32,-18C553.26,-18 561.85,-18 570.77,-18"/>
<polygon fill="black" stroke="black" points="570.94,-21.5 580.94,-18 570.94,-14.5 570.94,-21.5"/>
</g>
<!-- 29 -->
<g id="node14" class="node">
<title>29</title>
<ellipse fill="cyan" stroke="cyan" cx="942.13" cy="-26" rx="98.58" ry="18"/>
<text text-anchor="middle" x="942.13" y="-22.3" font-family="Times,serif" font-size="14.00">DmaMemcpyNdOp</text>
</g>
<!-- 26&#45;&gt;29 -->
<g id="edge11" class="edge">
<title>26&#45;&gt;29</title>
<path fill="none" stroke="black" d="M805.24,-21.58C815.02,-21.9 824.9,-22.22 834.65,-22.54"/>
<polygon fill="black" stroke="black" points="834.63,-26.04 844.74,-22.86 834.86,-19.04 834.63,-26.04"/>
</g>
<!-- 30 -->
<g id="node15" class="node">
<title>30</title>
<ellipse fill="chartreuse" stroke="chartreuse" cx="1129.57" cy="-103" rx="52.79" ry="18"/>
<text text-anchor="middle" x="1129.57" y="-99.3" font-family="Times,serif" font-size="14.00">LinalgOp</text>
</g>
<!-- 27&#45;&gt;30 -->
<g id="edge12" class="edge">
<title>27&#45;&gt;30</title>
<path fill="none" stroke="black" d="M993.16,-156.52C1008.57,-151.51 1025.53,-145.76 1040.92,-140 1056.28,-134.26 1072.9,-127.41 1087.5,-121.17"/>
<polygon fill="black" stroke="black" points="1088.97,-124.35 1096.77,-117.18 1086.2,-117.92 1088.97,-124.35"/>
</g>
<!-- 28&#45;&gt;30 -->
<g id="edge13" class="edge">
<title>28&#45;&gt;30</title>
<path fill="none" stroke="black" d="M1024.19,-90.05C1039.49,-91.95 1055.21,-93.9 1069.66,-95.69"/>
<polygon fill="black" stroke="black" points="1069.58,-99.21 1079.94,-96.97 1070.44,-92.26 1069.58,-99.21"/>
</g>
<!-- 29&#45;&gt;30 -->
<g id="edge14" class="edge">
<title>29&#45;&gt;30</title>
<path fill="none" stroke="black" d="M1003.66,-40.18C1016.17,-43.81 1029.13,-48.1 1040.92,-53 1059.72,-60.81 1079.51,-71.83 1095.52,-81.54"/>
<polygon fill="black" stroke="black" points="1094.12,-84.79 1104.47,-87.07 1097.8,-78.84 1094.12,-84.79"/>
</g>
<!-- 31 -->
<g id="node16" class="node">
<title>31</title>
<ellipse fill="chartreuse" stroke="chartreuse" cx="1331.3" cy="-103" rx="113.18" ry="18"/>
<text text-anchor="middle" x="1331.3" y="-99.3" font-family="Times,serif" font-size="14.00">ExecuteTerminatorOp</text>
</g>
<!-- 30&#45;&gt;31 -->
<g id="edge15" class="edge">
<title>30&#45;&gt;31</title>
<path fill="none" stroke="black" d="M1182.26,-103C1190.32,-103 1198.94,-103 1207.8,-103"/>
<polygon fill="black" stroke="black" points="1207.9,-106.5 1217.9,-103 1207.9,-99.5 1207.9,-106.5"/>
</g>
<!-- 32 -->
<g id="node17" class="node">
<title>32</title>
<ellipse fill="cyan" stroke="cyan" cx="1579.18" cy="-157" rx="98.58" ry="18"/>
<text text-anchor="middle" x="1579.18" y="-153.3" font-family="Times,serif" font-size="14.00">DmaMemcpyNdOp</text>
</g>
<!-- 31&#45;&gt;32 -->
<g id="edge16" class="edge">
<title>31&#45;&gt;32</title>
<path fill="none" stroke="black" d="M1398.52,-117.54C1431.53,-124.79 1471.53,-133.58 1505.4,-141.02"/>
<polygon fill="black" stroke="black" points="1504.72,-144.45 1515.24,-143.18 1506.22,-137.61 1504.72,-144.45"/>
</g>
<!-- 33 -->
<g id="node18" class="node">
<title>33</title>
<ellipse fill="chartreuse" stroke="chartreuse" cx="1579.18" cy="-103" rx="57.69" ry="18"/>
<text text-anchor="middle" x="1579.18" y="-99.3" font-family="Times,serif" font-size="14.00">DeallocOp</text>
</g>
<!-- 31&#45;&gt;33 -->
<g id="edge17" class="edge">
<title>31&#45;&gt;33</title>
<path fill="none" stroke="black" d="M1444.45,-103C1467.2,-103 1490.45,-103 1511.05,-103"/>
<polygon fill="black" stroke="black" points="1511.25,-106.5 1521.25,-103 1511.25,-99.5 1511.25,-106.5"/>
</g>
<!-- 35 -->
<g id="node20" class="node">
<title>35</title>
<ellipse fill="chartreuse" stroke="chartreuse" cx="1579.18" cy="-49" rx="57.69" ry="18"/>
<text text-anchor="middle" x="1579.18" y="-45.3" font-family="Times,serif" font-size="14.00">DeallocOp</text>
</g>
<!-- 31&#45;&gt;35 -->
<g id="edge18" class="edge">
<title>31&#45;&gt;35</title>
<path fill="none" stroke="black" d="M1398.52,-88.46C1436.87,-80.03 1484.66,-69.54 1521.31,-61.49"/>
<polygon fill="black" stroke="black" points="1522.31,-64.85 1531.33,-59.29 1520.81,-58.02 1522.31,-64.85"/>
</g>
<!-- 37 -->
<g id="node22" class="node">
<title>37</title>
<ellipse fill="chartreuse" stroke="chartreuse" cx="1827.06" cy="-211" rx="57.69" ry="18"/>
<text text-anchor="middle" x="1827.06" y="-207.3" font-family="Times,serif" font-size="14.00">DeallocOp</text>
</g>
<!-- 32&#45;&gt;37 -->
<g id="edge19" class="edge">
<title>32&#45;&gt;37</title>
<path fill="none" stroke="black" d="M1642.86,-170.77C1681.92,-179.34 1731.75,-190.29 1769.58,-198.59"/>
<polygon fill="black" stroke="black" points="1768.9,-202.03 1779.41,-200.75 1770.4,-195.19 1768.9,-202.03"/>
</g>
<!-- 39 -->
<g id="node24" class="node">
<title>39</title>
<polygon fill="crimson" stroke="crimson" points="1871.06,-175 1783.06,-175 1783.06,-139 1871.06,-139 1871.06,-175"/>
<text text-anchor="middle" x="1827.06" y="-153.3" font-family="Times,serif" font-size="14.00">WaitAllOp</text>
</g>
<!-- 32&#45;&gt;39 -->
<g id="edge20" class="edge">
<title>32&#45;&gt;39</title>
<path fill="none" stroke="black" d="M1678.07,-157C1710.37,-157 1745.08,-157 1772.76,-157"/>
<polygon fill="black" stroke="black" points="1773.01,-160.5 1783.01,-157 1773.01,-153.5 1773.01,-160.5"/>
</g>
<!-- 34 -->
<g id="node19" class="node">
<title>34</title>
<ellipse fill="chartreuse" stroke="chartreuse" cx="1827.06" cy="-103" rx="113.18" ry="18"/>
<text text-anchor="middle" x="1827.06" y="-99.3" font-family="Times,serif" font-size="14.00">ExecuteTerminatorOp</text>
</g>
<!-- 33&#45;&gt;34 -->
<g id="edge21" class="edge">
<title>33&#45;&gt;34</title>
<path fill="none" stroke="black" d="M1637.21,-103C1657.11,-103 1680.27,-103 1703.42,-103"/>
<polygon fill="black" stroke="black" points="1703.69,-106.5 1713.69,-103 1703.69,-99.5 1703.69,-106.5"/>
</g>
<!-- 36 -->
<g id="node21" class="node">
<title>36</title>
<ellipse fill="chartreuse" stroke="chartreuse" cx="1827.06" cy="-49" rx="113.18" ry="18"/>
<text text-anchor="middle" x="1827.06" y="-45.3" font-family="Times,serif" font-size="14.00">ExecuteTerminatorOp</text>
</g>
<!-- 35&#45;&gt;36 -->
<g id="edge22" class="edge">
<title>35&#45;&gt;36</title>
<path fill="none" stroke="black" d="M1637.21,-49C1657.11,-49 1680.27,-49 1703.42,-49"/>
<polygon fill="black" stroke="black" points="1703.69,-52.5 1713.69,-49 1703.69,-45.5 1703.69,-52.5"/>
</g>
<!-- 38 -->
<g id="node23" class="node">
<title>38</title>
<ellipse fill="chartreuse" stroke="chartreuse" cx="2089.24" cy="-211" rx="113.18" ry="18"/>
<text text-anchor="middle" x="2089.24" y="-207.3" font-family="Times,serif" font-size="14.00">ExecuteTerminatorOp</text>
</g>
<!-- 37&#45;&gt;38 -->
<g id="edge23" class="edge">
<title>37&#45;&gt;38</title>
<path fill="none" stroke="black" d="M1885.16,-211C1908.94,-211 1937.53,-211 1965.66,-211"/>
<polygon fill="black" stroke="black" points="1965.99,-214.5 1975.99,-211 1965.99,-207.5 1965.99,-214.5"/>
</g>
<!-- 40 -->
<g id="node25" class="node">
<title>40</title>
<polygon fill="crimson" stroke="crimson" points="2148.74,-175 2029.74,-175 2029.74,-139 2148.74,-139 2148.74,-175"/>
<text text-anchor="middle" x="2089.24" y="-153.3" font-family="Times,serif" font-size="14.00">ScfForYieldOp</text>
</g>
<!-- 39&#45;&gt;40 -->
<g id="edge24" class="edge">
<title>39&#45;&gt;40</title>
<path fill="none" stroke="black" d="M1871.32,-157C1911.57,-157 1972.23,-157 2019.18,-157"/>
<polygon fill="black" stroke="black" points="2019.28,-160.5 2029.28,-157 2019.28,-153.5 2019.28,-160.5"/>
</g>
<!-- 41&#45;&gt;27 -->
<g id="edge25" class="edge">
<title>41&#45;&gt;27</title>
<path fill="none" stroke="black" d="M735.85,-133.6C770.2,-140.02 820.41,-149.42 862.58,-157.31"/>
<polygon fill="black" stroke="black" points="862.08,-160.77 872.56,-159.17 863.37,-153.89 862.08,-160.77"/>
</g>
<!-- 41&#45;&gt;28 -->
<g id="edge26" class="edge">
<title>41&#45;&gt;28</title>
<path fill="none" stroke="black" d="M735.85,-118.4C770.2,-111.98 820.41,-102.58 862.58,-94.69"/>
<polygon fill="black" stroke="black" points="863.37,-98.11 872.56,-92.83 862.08,-91.23 863.37,-98.11"/>
</g>
<!-- 41&#45;&gt;29 -->
<g id="edge27" class="edge">
<title>41&#45;&gt;29</title>
<path fill="none" stroke="black" d="M735.93,-122.78C758.42,-119.45 786.04,-112.7 807.34,-99 829.17,-84.96 821.74,-67.4 843.34,-53 849.43,-48.94 856.13,-45.48 863.07,-42.54"/>
<polygon fill="black" stroke="black" points="864.58,-45.71 872.65,-38.85 862.06,-39.18 864.58,-45.71"/>
</g>
<!-- 41&#45;&gt;30 -->
<g id="edge28" class="edge">
<title>41&#45;&gt;30</title>
<path fill="none" stroke="black" d="M736.01,-123.84C812.39,-119.78 977.42,-111.02 1067.26,-106.25"/>
<polygon fill="black" stroke="black" points="1067.5,-109.75 1077.3,-105.72 1067.13,-102.76 1067.5,-109.75"/>
</g>
</g>
</svg>
